<?xml version="1.0" encoding="utf-8"?>
<!-- Generator: Adobe Illustrator 28.4.1, SVG Export Plug-In . SVG Version: 6.00 Build 0)  -->
<svg version="1.1" id="圖層_1" xmlns="http://www.w3.org/2000/svg" xmlns:xlink="http://www.w3.org/1999/xlink" x="0px" y="0px"
      viewBox="0 0 326 324" style="enable-background:new 0 0 326 324;" xml:space="preserve" width="25" height="25" fill="white">
<path d="M319.6,247.3c-0.1,35.2-23.1,63.6-57.2,70.7c-5.1,1-10.4,1.4-15.6,1.4c-57.9,0.1-115.8,0.1-173.6,0
   c-37.6,0-66.5-24.9-72.2-62c-0.5-3.4-0.6-7-0.6-10.5c0-58.1-0.1-116.3,0-174.4c0-35.4,23-63.9,57.2-71c5-1,10.2-1.4,15.2-1.4
   C130.9,0,189,0,247.2,0c35.4,0,63.9,23,71,57.2c1.1,5.2,1.4,10.6,1.4,16c0.1,28.9,0.1,57.9,0.1,86.8
   C319.6,189.2,319.7,218.3,319.6,247.3z M101.9,194.7c8.5,0,16.8,0,25.4,0c0,41.7,0,83.1,0,124.8c16.1,0,31.8,0,48.1,0
   c0-41.7,0-83.2,0-125.1c13.1,0,25.6,0,38.2,0c1.5-17.2,2.9-33.9,4.4-51.2c-13.4,0-26.3,0-39.2,0c0-7.7-0.3-15,0.1-22.1
   c0.4-6.1,3.8-9.2,9.9-9.8c3.1-0.3,6.3-0.2,9.5-0.2c6.1,0,12.3,0,18.5,0c0-14.4,0-28.3,0-42.2c-0.5-0.2-0.9-0.4-1.3-0.4
   c-15.5,0.2-31.1-0.3-46.5,0.7c-22.4,1.5-39,16-43,37.9c-1.8,10-1.5,20.4-2,30.6c-0.1,1.8,0,3.6,0,5.6c-7.6,0-14.7,0-22.1,0
   C101.9,160.5,101.9,177.4,101.9,194.7z"/>
</svg>