<?xml version="1.0" encoding="utf-8"?>
<!-- Generator: Adobe Illustrator 28.4.1, SVG Export Plug-In . SVG Version: 6.00 Build 0)  -->
<svg version="1.1" id="圖層_1" xmlns="http://www.w3.org/2000/svg" xmlns:xlink="http://www.w3.org/1999/xlink" x="0px" y="0px"
viewBox="0 0 326 324" style="enable-background:new 0 0 326 324;" xml:space="preserve" width="25" height="25" fill="white">
<style type="text/css">
.st0{display:none;}
</style>
<path class="st0" d="M319.6,247.3c-0.1,35.2-23.1,63.6-57.2,70.7c-5.1,1-10.4,1.4-15.6,1.4c-57.9,0.1-115.8,0.1-173.6,0
c-37.6,0-66.5-24.9-72.2-62c-0.5-3.4-0.6-7-0.6-10.5c0-58.1-0.1-116.3,0-174.4c0-35.4,23-63.9,57.2-71c5-1,10.2-1.4,15.2-1.4
C130.9,0,189,0,247.2,0c35.4,0,63.9,23,71,57.2c1.1,5.2,1.4,10.6,1.4,16c0.1,28.9,0.1,57.9,0.1,86.8
C319.6,189.2,319.7,218.3,319.6,247.3z M101.9,194.7c8.5,0,16.8,0,25.4,0c0,41.7,0,83.1,0,124.8c16.1,0,31.8,0,48.1,0
c0-41.7,0-83.2,0-125.1c13.1,0,25.6,0,38.2,0c1.5-17.2,2.9-33.9,4.4-51.2c-13.4,0-26.3,0-39.2,0c0-7.7-0.3-15,0.1-22.1
c0.4-6.1,3.8-9.2,9.9-9.8c3.1-0.3,6.3-0.2,9.5-0.2c6.1,0,12.3,0,18.5,0c0-14.4,0-28.3,0-42.2c-0.5-0.2-0.9-0.4-1.3-0.4
c-15.5,0.2-31.1-0.3-46.5,0.7c-22.4,1.5-39,16-43,37.9c-1.8,10-1.5,20.4-2,30.6c-0.1,1.8,0,3.6,0,5.6c-7.6,0-14.7,0-22.1,0
C101.9,160.5,101.9,177.4,101.9,194.7z"/>
<g>
<path d="M321.9,162c0,29.1,0.1,58.1,0,87.2c-0.1,35.2-23.1,63.6-57.3,70.6c-5.1,1.1-10.4,1.4-15.6,1.4c-58,0.1-116,0.1-174,0
  c-37.7,0-66.6-24.9-72.4-62c-0.5-3.4-0.6-7-0.6-10.4c0-58.1-0.1-116.3,0-174.4c0-35.4,23.1-63.9,57.3-71c5-1,10.2-1.4,15.3-1.4
  c58.2-0.1,116.5-0.1,174.7,0c35.5,0,64,23,71.1,57.2c1.1,5.2,1.4,10.6,1.4,16C322,104.1,321.9,133,321.9,162z M265.6,161.5
  c0-57.2-46.5-103.4-103.8-103.3c-57.1,0.1-103.4,46.3-103.5,103.3c0,57.2,46.3,103.5,103.6,103.5
  C219.2,265,265.6,218.7,265.6,161.5z M289.7,54.9c-0.1-12.1-9.9-21.8-22-21.7c-12.1,0.1-21.8,9.8-21.8,22c0,12,9.9,21.8,22,21.8
  C280,76.8,289.8,67,289.7,54.9z"/>
<path d="M220.6,161.7c-0.1,32.4-26.2,58.4-58.7,58.5c-32.6,0-58.7-26.3-58.6-58.9c0.1-32.4,26.4-58.3,58.9-58.2
  C194.6,103.1,220.7,129.3,220.6,161.7z"/>
</g>
</svg>  